<svg width="73" height="72" viewBox="0 0 73 72" fill="none" xmlns="http://www.w3.org/2000/svg">
<path d="M36.5 66C53.0685 66 66.5 52.5685 66.5 36C66.5 19.4315 53.0685 6 36.5 6C19.9315 6 6.5 19.4315 6.5 36C6.5 52.5685 19.9315 66 36.5 66Z" stroke="black" stroke-width="2" stroke-linecap="round" stroke-linejoin="round"/>
<path d="M50.6667 51.125V47.875C50.6667 46.1511 49.9467 44.4978 48.6652 43.2788C47.3837 42.0598 45.6456 41.375 43.8333 41.375H30.1667C28.3543 41.375 26.6163 42.0598 25.3348 43.2788C24.0533 44.4978 23.3333 46.1511 23.3333 47.875V51.125" stroke="black" stroke-width="2" stroke-linecap="round" stroke-linejoin="round"/>
<path d="M37 34.875C40.774 34.875 43.8333 31.9649 43.8333 28.375C43.8333 24.7851 40.774 21.875 37 21.875C33.2261 21.875 30.1667 24.7851 30.1667 28.375C30.1667 31.9649 33.2261 34.875 37 34.875Z" stroke="black" stroke-width="2" stroke-linecap="round" stroke-linejoin="round"/>
</svg>
