<svg width="25" height="24" viewBox="0 0 25 24" fill="none" xmlns="http://www.w3.org/2000/svg">
<path d="M21.3398 4.49586C20.829 3.98486 20.2226 3.57951 19.5551 3.30294C18.8876 3.02638 18.1722 2.88403 17.4498 2.88403C16.7273 2.88403 16.0119 3.02638 15.3444 3.30294C14.6769 3.57951 14.0705 3.98486 13.5598 4.49586L12.4998 5.55586L11.4398 4.49586C10.4081 3.46417 9.00879 2.88457 7.54975 2.88457C6.09072 2.88457 4.69144 3.46417 3.65975 4.49586C2.62806 5.52755 2.04846 6.92683 2.04846 8.38586C2.04846 9.84489 2.62806 11.2442 3.65975 12.2759L4.71975 13.3359L12.4998 21.1159L20.2798 13.3359L21.3398 12.2759C21.8507 11.7651 22.2561 11.1587 22.5327 10.4912C22.8092 9.82375 22.9516 9.10835 22.9516 8.38586C22.9516 7.66337 22.8092 6.94796 22.5327 6.2805C22.2561 5.61304 21.8507 5.00661 21.3398 4.49586Z" stroke="black" stroke-width="2" stroke-linecap="round" stroke-linejoin="round"/>
</svg>
